<svg width="512" height="512" viewBox="0 0 28 28" xmlns="http://www.w3.org/2000/svg">
  <defs>
    <clipPath id="c"><circle cx="14" cy="14" r="14"/></clipPath>
  </defs>
  <g clip-path="url(#c)">
    <circle cx="14" cy="14" r="14" fill="white"/>
    <g stroke="#F0A500" stroke-width="1.3" stroke-linecap="round">
      <line x1="14" y1="17" x2="2.2" y2="14.9"/>
      <line x1="14" y1="17" x2="3.4" y2="11.4"/>
      <line x1="14" y1="17" x2="5.7" y2="8.4"/>
      <line x1="14" y1="17" x2="8.5" y2="6.3"/>
      <line x1="14" y1="17" x2="12.1" y2="5.2"/>
      <line x1="14" y1="17" x2="15.9" y2="5.2"/>
      <line x1="14" y1="17" x2="19.5" y2="6.3"/>
      <line x1="14" y1="17" x2="22.3" y2="8.4"/>
      <line x1="14" y1="17" x2="24.6" y2="11.4"/>
      <line x1="14" y1="17" x2="25.8" y2="14.9"/>
    </g>
    <rect x="0" y="17" width="28" height="11" fill="#1E7FC2"/>
    <path d="M7,17.5 Q14,15.5 21,17.5 L20.5,18.5 Q14,16.8 7.5,18.5 Z" fill="#CE1126"/>
    <path d="M3,19.5 Q7,18.5 11,19.5 Q14,20.5 17,19.5 Q21,18.5 25,19.5" fill="none" stroke="white" stroke-width="0.6" opacity="0.8"/>
    <path d="M3,21.5 Q7,20.5 11,21.5 Q14,22.5 17,21.5 Q21,20.5 25,21.5" fill="none" stroke="white" stroke-width="0.5" opacity="0.6"/>
    <path d="M3,23.5 Q7,22.5 11,23.5 Q14,24.5 17,23.5 Q21,22.5 25,23.5" fill="none" stroke="white" stroke-width="0.4" opacity="0.4"/>
  </g>
</svg>
